# xmcd CD database file generated by libcdaudio 0.99.4
# 
# Track frame offsets:
#       150
#       12899
#       26409
#       40068
#       50270
#       64272
#       78744
#       93184
#       104156
#       117545
#       128012
#       140434
#       155061
#       167613
#       179795
#       192412
#       205929
#       219634
# 
# Disc length: 3091 seconds
# 
# Revision: 3
# Processed by: cddbd v1.4PL0 Copyright (c) Steve Scherf et al.
# Submitted via: libcdaudio 0.99.4
# 
DISCID=080c1112
DTITLE=Dean Martin - Dean Martin
DYEAR=1900
DGENRE=
TTITLE0=Everybody Loves Somebody
TTITLE1=Volare
TTITLE2=Rio Bravo
TTITLE3=Memories are made of this
TTITLE4=That's amore
TTITLE5=My heart cries for you
TTITLE6=I'm yours
TTITLE7=Innamorata
TTITLE8=Lullaby
TTITLE9=Buona Sera
TTITLE10=Take this chains from my heart
TTITLE11=Release me
TTITLE12=Return to me
TTITLE13=(Sway) Quien Sera
TTITLE14=Write to me from Naples
TTITLE15=Crying Time
TTITLE16=When You're Smiling
TTITLE17=(Angel Baby) Valentino
EXTD=
EXTT0=
EXTT1=
EXTT2=
EXTT3=
EXTT4=
EXTT5=
EXTT6=
EXTT7=
EXTT8=
EXTT9=
EXTT10=
EXTT11=
EXTT12=
EXTT13=
EXTT14=
EXTT15=
EXTT16=
EXTT17=
PLAYORDER=
